Patient4_TMGait_0pt7_01_right_47_EMG.mot
version=1
nRows=30
nColumns=33
inDegrees=no
endheader
time	1LAddLong	2LGlutMax	3LGlutMed	4LIliopsoas	5LSemiMemb	6LBicFemLong	7LRecFem	8LVastMed	9LVastLat	10LGasMed	11LTibAnt	12lTibPost	13LPeroneusLong	14LSol	15LExtDigLong	16LFlexDigLong	17RAddLong	18RGlutMax	19RGlutMed	20RIliopsoas	21RSemiMemb	22RBicFemLong	23RRecFem	24RVastMed	25RVastLat	26RGasMed	27RTibAnt	28RTibPost	29RPeroneusLong	30RSol	31RExtDigLong	32RFlexDigLong
55.23	0.013123	-0.053558	-0.18631	0.008545	0.053406	0.14969	0.054169	-0.00412	0.00946	0.19287	-0.050049	-0.007935	0.11597	0.24612	-0.006104	-0.009308	0.022736	-0.054169	-0.15884	-0.025024	0.011292	0.060425	-0.14633	-0.10422	-0.0354	0.00351	0.28595	-0.01236	0.19241	-0.12924	0.002594	0.006256
55.231	0.005798	-0.027313	-0.2356	-0.016937	0.011292	0.10346	0.048828	-0.002747	0.009308	0.2385	-0.064087	-0.006561	0.34531	0.2121	-0.25192	-0.005188	0.041656	-0.069885	-0.23804	0.007172	0.016174	0.06485	-0.06546	-0.1445	-0.030975	0.002136	0.3067	-0.014343	0.023651	-0.079803	0.001984	0.007324
55.232	0.006104	-0.00412	-0.10407	-0.027924	0.037384	0.079956	0.065765	0.002441	0.018921	0.29465	-0.043335	-0.013885	0.2945	0.112	-0.029755	-0.023499	0.047607	-0.078735	-0.52094	-0.018768	-0.048828	0.09201	0.010529	-0.19943	-0.019531	-0.001068	0.22751	-0.012512	-0.012665	-0.029144	0.000763	0.00824
55.233	-0.002747	-0.003357	0.14587	-0.009003	0.033875	0.033722	0.020142	0.007629	-0.013123	0.40451	0.018921	-0.013733	-0.13992	0.018311	-0.23895	-0.02182	0.036926	-0.1326	-0.39841	-0.011444	-0.12268	0.11169	0.27741	-0.16663	-0.023346	0.003052	0.084991	-0.013275	0.034332	-0.022736	0.005951	0.000763
55.234	-0.005035	-0.030975	0.18143	0.039978	0.012512	0.031433	0.034637	-0.001221	-0.020752	0.25543	-0.082245	-0.015411	0.50125	0.13748	-0.032196	0.001526	-0.016327	-0.20615	-0.67215	0.019836	-0.14954	0.094299	0.39581	-0.11704	0.019531	-0.002594	0.074158	-0.005035	0.013733	0.014038	0.004425	0.002899
55.235	-0.018311	-0.033264	0.11215	0.002136	0.030518	-0.092468	0.055695	-0.011292	0.034485	0.18143	-0.13199	-0.005341	0.09964	0.20935	0.093231	0.008545	-0.019531	-0.16083	-0.41046	0.031433	0.014496	0.080872	0.28259	-0.087433	0.007324	0.004578	0.015717	-0.001984	0.061035	-0.048981	0.004272	0.000763
55.236	0.002899	-0.047607	0.13275	-0.007172	0.02594	0.020294	0.05722	-0.00061	0.025635	0.62256	-0.029449	-0.007782	-0.86273	0.40863	0.054321	0.014954	-0.009766	-0.15381	-0.36911	0.03418	0.15243	0.071564	0.2858	-0.026093	0.014191	0.003357	-0.09903	-0.008545	0.065918	-0.043182	0.014191	0.004272
55.237	0.02243	-0.056152	0.04776	0.012512	0.029449	0.14679	-0.02594	0.00946	-0.00946	0.51865	-0.053864	-0.017853	-0.16876	0.11536	-0.057526	0.019684	-0.00885	-0.11383	-0.50186	0.020142	0.087585	0.007935	0.26215	0.000153	0.031281	0.004883	-0.30731	-0.005035	0.030823	-0.047607	0.003052	-0.003662
55.238	0.007935	-0.10956	-0.049744	0.010681	0.027008	0.062866	-0.055237	0.030975	-0.073853	-0.56366	-0.072937	-0.010223	0.16678	-0.095673	-0.12375	0.018616	-0.008698	-0.18005	-0.64423	-0.014648	-0.032654	0.010071	0.28351	-0.017242	0.012207	0.016479	-0.47394	-0.014191	-0.006104	0.009766	-0.002289	-0.00061
55.239	0.021973	-0.10117	-0.045776	0.022736	0.028534	0.068665	-0.020142	0.028992	-0.10529	-0.64453	-0.04364	0.007324	0.15564	-0.28839	0.058289	-0.015717	-0.008545	-0.19073	-0.94208	-0.004578	-0.001526	0.023956	0.31754	0.068054	0.014496	0.010834	-0.16892	-0.009003	-0.009613	0.015564	0.003357	-0.001373
55.24	0.016174	-0.075226	-0.053406	0.011597	0.021057	0.057068	-0.085297	0.014496	-0.12848	-0.26016	0.010529	0.0177	-0.13596	-0.73578	0.15533	0.062408	0.009155	-0.16449	-1.1792	0.031891	-0.005188	-0.01236	0.30395	0.06546	0.018463	0.009003	0.000458	-0.005188	0.001831	-0.078888	0.006409	-0.002747
55.241	0.023499	-0.059204	-0.060883	0.030518	0.036926	0.04364	0.007935	0.011902	-0.16785	0.21439	0.036469	0.016632	-0.003357	-0.7782	0.14114	0.078278	0.053406	-0.077362	-0.6514	-0.027008	0.022125	-0.04364	0.23529	0.022888	0.029144	0.006104	-0.05127	-0.006409	-0.027771	-0.12726	0.006409	-0.001984
55.242	0.012207	-0.055084	-0.095825	0.023346	0.060272	0.020599	0.049133	0.005646	-0.12787	-0.15335	0.055695	0.010376	0.20264	-0.7756	0.072784	-0.22522	0.088348	-0.04776	-0.057526	-0.071411	0.03479	-0.050964	0.17975	-0.035553	0.02243	0.002441	0.069275	-0.004578	-0.069885	-0.10666	0.002747	-0.00061
55.243	0.010986	-0.058594	-0.037842	0.019531	0.022278	0.03952	0.013733	0.003815	-0.003662	-0.98648	0.063934	0.013123	0.055389	-0.51422	0.031281	0.047607	0.046539	-0.013733	0.36057	-0.032043	-0.097198	0.031738	0.04425	-0.046234	0.021973	0.000763	0.15595	-0.004578	-0.078888	-0.064697	0.002594	-0.001678
55.244	0.002899	-0.046692	-0.021362	0.060425	-0.005493	0.083923	0.007019	0.006409	0.029297	-0.60944	-0.000458	0.040741	-0.027313	0.014343	0.074463	0.19241	-0.003815	-0.061035	0.15381	-0.000305	-0.11963	0.073853	-0.074615	-0.075226	0.027466	0.000153	0.14389	-0.001526	-0.077057	0.03067	0.005035	0
55.245	0.023499	-0.074463	0.008698	0.023499	-0.022583	0.26215	-0.077057	0.005798	0.046844	-0.31342	-0.019836	0.055542	0.054626	0.42908	0.062561	-0.09903	-0.033417	-0.10376	-0.94376	0.057526	-0.10239	0.11581	-0.055542	-0.033112	0.008698	0.003357	0.17883	-0.00473	-0.06012	0.027466	0.003662	-0.000153
55.246	0.009003	-0.086365	-0.006409	0.019684	-0.00824	0.38925	-0.032806	0.020294	0.009003	-0.21591	0.007477	0.034637	0.04837	0.38773	0.012512	-0.15717	-0.054626	-0.1416	-1.0672	0.042725	-0.022888	0.1416	-0.014191	-0.041046	0.007782	-0.003052	0.1532	0.003357	-0.023804	0.032043	0.010376	-0.002747
55.247	0.013733	-0.059662	-0.052338	0.032196	0.027008	0.50781	0.023346	0.010986	0.003662	-0.14542	-0.008698	0.006256	0.224	0.18341	-0.16846	-0.05127	-0.057831	-0.10895	-0.56656	-0.041351	0.06073	0.078888	0.013885	-0.037537	0.010681	0.005798	0.15839	-0.003967	-0.055084	-0.052338	0.003662	0.007172
55.248	0.009918	-0.051422	-0.12436	0.012054	-0.00412	0.52612	-0.038757	-0.006714	0.020905	-0.12466	-0.067444	-0.005493	-0.10956	0.27435	-0.14862	-0.018005	-0.032196	-0.12558	-0.045013	-0.10239	-0.047607	0.007477	0.012054	-0.04715	0.007172	0.003357	0.062714	-0.002594	-0.065002	-0.09613	0.003204	0.002747
55.249	0.009308	-0.049591	-0.082397	-0.002899	0.006714	0.38635	-0.02594	-0.005798	0.061798	-0.17151	-0.095367	0.010986	-0.2977	0.65475	-0.056915	0.000458	-0.023651	-0.14008	0.37659	-0.093689	-0.042725	-0.006714	-0.032196	-0.023193	0.012665	-0.001221	-0.041962	0.000153	-0.10147	-0.066528	0.005493	0.008698
55.25	0.014954	-0.070343	-0.006409	-0.028076	0.026093	0.011749	-0.006714	-0.010223	0.074005	-0.10559	-0.052032	0.003357	-0.21835	0.55542	-0.18524	-0.011139	-0.017548	-0.11566	0.21683	-0.026703	-0.034637	0.058746	-0.013275	-0.035553	0.027008	-0.022888	-0.23544	-0.00061	-0.080719	-0.050049	0.007935	-0.000458
55.251	0.009155	-0.041046	0.093231	-0.060883	0.017242	-0.45471	-0.032806	-0.000153	0.057983	-0.085754	0.007172	-0.002441	-0.068817	0.4744	-0.14832	0.002747	0.020599	-0.085907	-0.18692	0.045776	-0.13672	-0.019226	0.02243	-0.029144	0.0177	-0.032501	-0.16785	0.000763	-0.021515	-0.11353	0.009308	-0.00061
55.252	0.006409	-0.015106	0.089874	-0.050964	0	-0.74112	-0.053558	-0.011902	0.10651	-0.079956	-0.012512	-0.009155	0.66666	0.5339	-0.051117	0.006409	0.023804	-0.03418	-0.35858	0.036316	-0.072937	-0.059509	-0.004578	-0.036163	0.028839	-0.037842	0.32532	-0.000763	0.034485	-0.16449	0.003204	0.001678
55.253	0.010223	-0.037689	-0.087433	-0.040894	0.028839	-0.46356	-0.032196	-0.013885	0.074158	-0.05127	0.033569	-0.004272	0.14084	0.50323	0.38086	0.008087	0.029755	-0.031128	-0.3273	-0.004883	-0.1004	-0.005951	0.012512	-0.000916	0.010986	-0.020599	0.4451	0.00061	0.001678	-0.11765	0.005188	0.007324
55.254	0.007782	-0.045929	-0.07431	-0.019531	0.033569	-0.15091	-0.050812	-0.002594	0.039825	-0.032196	0.17227	0.001831	-0.25955	0.21271	0.28595	-0.005798	0.002289	0.003357	-0.013885	-0.000305	-0.029602	0.074158	0.045166	0.040894	0.019379	0.034943	0.53253	-0.007019	-0.11795	0.001221	0.001526	0.006104
55.255	0.010071	-0.040131	-0.027618	-0.031128	0.027618	-0.051575	-0.002289	0.003204	0.046234	0.010986	0.18906	-0.006256	-0.61447	0.025177	0.36423	0.007629	-0.011749	-0.030365	0.41412	0.013275	0.13382	0.026093	0.057983	0.051727	0.014954	0.04837	0.6308	-0.005646	0.05188	-0.048218	0.003052	-0.002441
55.256	0.008698	-0.075226	-0.042725	-0.036774	0.020142	0.031891	0.094147	0.00885	0.077209	-0.02594	0.13855	-0.002136	-0.17822	0.21011	0.14694	0.02243	-0.016785	-0.073242	0.18051	0.006104	-0.14648	0.18249	0.036621	0.14038	0.028534	0.035858	-0.031738	0.003357	0.3479	-0.12817	0.002594	0.00946
55.257	0.005646	-0.023499	-0.027771	-0.042267	0.010071	0.039978	0.060425	0.00412	0.049286	-0.014496	0.21194	-0.001984	-0.29862	0.29892	0.32425	0.017853	-0.021057	-0.003967	-0.043793	-0.027771	-0.21591	0.30456	0.084229	0.14923	0.009918	0.016327	-0.091095	0.01297	0.2327	-0.046692	-0.003662	0.008392
55.258	0.001984	-0.05661	0.10315	-0.018005	0.005951	0.12909	0.029755	0.005798	0.013885	0.050659	0.30319	-0.002289	0.041199	0.15243	0.051575	0.005035	-0.020142	0.086975	-0.036163	-0.074768	0.24139	0.159	0.090485	0.15869	0.02182	0.003204	-0.3096	0.003204	0.24628	0.016937	-0.002136	0.006409
55.259	0.014191	-0.028839	0.071716	0.029297	0.018158	0.15396	-0.007172	0.001831	0.042877	0.043488	0.2681	0.003662	0.052795	0.16602	-0.25375	0.012512	-0.026703	0.097046	-0.026703	-0.14496	0.1831	0.064545	0.054321	0.078583	0.043793	-0.010986	-0.35599	-0.000916	0.091553	0.06134	0.001373	0.010376
